<mxfile host="65bd71144e">
    <diagram id="ejW-jYY_6NJDyll3VNIf" name="ページ1">
        <mxGraphModel dx="3356" dy="1747" grid="1" gridSize="10" guides="1" tooltips="1" connect="1" arrows="1" fold="1" page="1" pageScale="1" pageWidth="827" pageHeight="1169" math="0" shadow="0">
            <root>
                <mxCell id="0"/>
                <mxCell id="1" parent="0"/>
                <mxCell id="2" value="MainActivity ex AppCompat" style="swimlane;fontStyle=0;childLayout=stackLayout;horizontal=1;startSize=26;fillColor=none;horizontalStack=0;resizeParent=1;resizeParentMax=0;resizeLast=0;collapsible=1;marginBottom=0;" parent="1" vertex="1">
                    <mxGeometry x="40" y="40" width="216" height="114" as="geometry">
                        <mxRectangle x="344" y="40" width="130" height="30" as="alternateBounds"/>
                    </mxGeometry>
                </mxCell>
                <mxCell id="3" value="none fields" style="text;strokeColor=none;fillColor=none;align=left;verticalAlign=top;spacingLeft=4;spacingRight=4;overflow=hidden;rotatable=0;points=[[0,0.5],[1,0.5]];portConstraint=eastwest;" parent="2" vertex="1">
                    <mxGeometry y="26" width="216" height="26" as="geometry"/>
                </mxCell>
                <mxCell id="9" value="" style="line;strokeWidth=1;html=1;strokeColor=default;" parent="2" vertex="1">
                    <mxGeometry y="52" width="216" height="10" as="geometry"/>
                </mxCell>
                <mxCell id="7" value="# onCreate(): void" style="text;strokeColor=none;fillColor=none;align=left;verticalAlign=top;spacingLeft=4;spacingRight=4;overflow=hidden;rotatable=0;points=[[0,0.5],[1,0.5]];portConstraint=eastwest;" parent="2" vertex="1">
                    <mxGeometry y="62" width="216" height="26" as="geometry"/>
                </mxCell>
                <mxCell id="11" value="+ onClick(): void" style="text;strokeColor=none;fillColor=none;align=left;verticalAlign=top;spacingLeft=4;spacingRight=4;overflow=hidden;rotatable=0;points=[[0,0.5],[1,0.5]];portConstraint=eastwest;" parent="2" vertex="1">
                    <mxGeometry y="88" width="216" height="26" as="geometry"/>
                </mxCell>
                <mxCell id="12" value="Score1Fragment ex Fragment" style="swimlane;fontStyle=0;childLayout=stackLayout;horizontal=1;startSize=26;fillColor=none;horizontalStack=0;resizeParent=1;resizeParentMax=0;resizeLast=0;collapsible=1;marginBottom=0;strokeColor=default;strokeWidth=1;" parent="1" vertex="1">
                    <mxGeometry x="1080" y="500" width="410" height="712" as="geometry"/>
                </mxCell>
                <mxCell id="13" value="+ pref: SharePreferences" style="text;strokeColor=none;fillColor=none;align=left;verticalAlign=top;spacingLeft=4;spacingRight=4;overflow=hidden;rotatable=0;points=[[0,0.5],[1,0.5]];portConstraint=eastwest;strokeWidth=1;" parent="12" vertex="1">
                    <mxGeometry y="26" width="410" height="26" as="geometry"/>
                </mxCell>
                <mxCell id="14" value="- timeText1: TextView" style="text;strokeColor=none;fillColor=none;align=left;verticalAlign=top;spacingLeft=4;spacingRight=4;overflow=hidden;rotatable=0;points=[[0,0.5],[1,0.5]];portConstraint=eastwest;strokeWidth=1;" parent="12" vertex="1">
                    <mxGeometry y="52" width="410" height="26" as="geometry"/>
                </mxCell>
                <mxCell id="15" value="- timeText2: TextView" style="text;strokeColor=none;fillColor=none;align=left;verticalAlign=top;spacingLeft=4;spacingRight=4;overflow=hidden;rotatable=0;points=[[0,0.5],[1,0.5]];portConstraint=eastwest;strokeWidth=1;" parent="12" vertex="1">
                    <mxGeometry y="78" width="410" height="26" as="geometry"/>
                </mxCell>
                <mxCell id="22" value="- timeText3: TextView" style="text;strokeColor=none;fillColor=none;align=left;verticalAlign=top;spacingLeft=4;spacingRight=4;overflow=hidden;rotatable=0;points=[[0,0.5],[1,0.5]];portConstraint=eastwest;strokeWidth=1;" parent="12" vertex="1">
                    <mxGeometry y="104" width="410" height="26" as="geometry"/>
                </mxCell>
                <mxCell id="21" value="- timeTitle: TextView" style="text;strokeColor=none;fillColor=none;align=left;verticalAlign=top;spacingLeft=4;spacingRight=4;overflow=hidden;rotatable=0;points=[[0,0.5],[1,0.5]];portConstraint=eastwest;strokeWidth=1;" parent="12" vertex="1">
                    <mxGeometry y="130" width="410" height="26" as="geometry"/>
                </mxCell>
                <mxCell id="20" value="- newScoreText: TextView" style="text;strokeColor=none;fillColor=none;align=left;verticalAlign=top;spacingLeft=4;spacingRight=4;overflow=hidden;rotatable=0;points=[[0,0.5],[1,0.5]];portConstraint=eastwest;strokeWidth=1;" parent="12" vertex="1">
                    <mxGeometry y="156" width="410" height="26" as="geometry"/>
                </mxCell>
                <mxCell id="19" value="- highScoreText: TextView" style="text;strokeColor=none;fillColor=none;align=left;verticalAlign=top;spacingLeft=4;spacingRight=4;overflow=hidden;rotatable=0;points=[[0,0.5],[1,0.5]];portConstraint=eastwest;strokeWidth=1;" parent="12" vertex="1">
                    <mxGeometry y="182" width="410" height="26" as="geometry"/>
                </mxCell>
                <mxCell id="18" value="- scoreEasy: String" style="text;strokeColor=none;fillColor=none;align=left;verticalAlign=top;spacingLeft=4;spacingRight=4;overflow=hidden;rotatable=0;points=[[0,0.5],[1,0.5]];portConstraint=eastwest;strokeWidth=1;" parent="12" vertex="1">
                    <mxGeometry y="208" width="410" height="26" as="geometry"/>
                </mxCell>
                <mxCell id="17" value="- score1: String" style="text;strokeColor=none;fillColor=none;align=left;verticalAlign=top;spacingLeft=4;spacingRight=4;overflow=hidden;rotatable=0;points=[[0,0.5],[1,0.5]];portConstraint=eastwest;strokeWidth=1;" parent="12" vertex="1">
                    <mxGeometry y="234" width="410" height="26" as="geometry"/>
                </mxCell>
                <mxCell id="25" value="- score2: String" style="text;strokeColor=none;fillColor=none;align=left;verticalAlign=top;spacingLeft=4;spacingRight=4;overflow=hidden;rotatable=0;points=[[0,0.5],[1,0.5]];portConstraint=eastwest;strokeWidth=1;" parent="12" vertex="1">
                    <mxGeometry y="260" width="410" height="26" as="geometry"/>
                </mxCell>
                <mxCell id="24" value="- score3: String" style="text;strokeColor=none;fillColor=none;align=left;verticalAlign=top;spacingLeft=4;spacingRight=4;overflow=hidden;rotatable=0;points=[[0,0.5],[1,0.5]];portConstraint=eastwest;strokeWidth=1;" parent="12" vertex="1">
                    <mxGeometry y="286" width="410" height="26" as="geometry"/>
                </mxCell>
                <mxCell id="114" value="- homeButton: Button" style="text;strokeColor=none;fillColor=none;align=left;verticalAlign=top;spacingLeft=4;spacingRight=4;overflow=hidden;rotatable=0;points=[[0,0.5],[1,0.5]];portConstraint=eastwest;strokeWidth=1;" vertex="1" parent="12">
                    <mxGeometry y="312" width="410" height="26" as="geometry"/>
                </mxCell>
                <mxCell id="113" value="- retryButton: Button" style="text;strokeColor=none;fillColor=none;align=left;verticalAlign=top;spacingLeft=4;spacingRight=4;overflow=hidden;rotatable=0;points=[[0,0.5],[1,0.5]];portConstraint=eastwest;strokeWidth=1;" vertex="1" parent="12">
                    <mxGeometry y="338" width="410" height="26" as="geometry"/>
                </mxCell>
                <mxCell id="112" value="- resetButton: Button" style="text;strokeColor=none;fillColor=none;align=left;verticalAlign=top;spacingLeft=4;spacingRight=4;overflow=hidden;rotatable=0;points=[[0,0.5],[1,0.5]];portConstraint=eastwest;strokeWidth=1;" vertex="1" parent="12">
                    <mxGeometry y="364" width="410" height="26" as="geometry"/>
                </mxCell>
                <mxCell id="23" value="- scoreArray: ArrayList&lt;Styring&gt;" style="text;strokeColor=none;fillColor=none;align=left;verticalAlign=top;spacingLeft=4;spacingRight=4;overflow=hidden;rotatable=0;points=[[0,0.5],[1,0.5]];portConstraint=eastwest;strokeWidth=1;" parent="12" vertex="1">
                    <mxGeometry y="390" width="410" height="26" as="geometry"/>
                </mxCell>
                <mxCell id="28" value="- formattedArray: ArrayList&lt;Styring&gt;" style="text;strokeColor=none;fillColor=none;align=left;verticalAlign=top;spacingLeft=4;spacingRight=4;overflow=hidden;rotatable=0;points=[[0,0.5],[1,0.5]];portConstraint=eastwest;strokeWidth=1;" parent="12" vertex="1">
                    <mxGeometry y="416" width="410" height="26" as="geometry"/>
                </mxCell>
                <mxCell id="27" value="- showNewScoreText: boolean" style="text;strokeColor=none;fillColor=none;align=left;verticalAlign=top;spacingLeft=4;spacingRight=4;overflow=hidden;rotatable=0;points=[[0,0.5],[1,0.5]];portConstraint=eastwest;strokeWidth=1;" parent="12" vertex="1">
                    <mxGeometry y="442" width="410" height="26" as="geometry"/>
                </mxCell>
                <mxCell id="26" value="- compareTime: new CompareTime()" style="text;strokeColor=none;fillColor=none;align=left;verticalAlign=top;spacingLeft=4;spacingRight=4;overflow=hidden;rotatable=0;points=[[0,0.5],[1,0.5]];portConstraint=eastwest;strokeWidth=1;" parent="12" vertex="1">
                    <mxGeometry y="468" width="410" height="26" as="geometry"/>
                </mxCell>
                <mxCell id="16" value="- createArray: new CreateArray()" style="text;strokeColor=none;fillColor=none;align=left;verticalAlign=top;spacingLeft=4;spacingRight=4;overflow=hidden;rotatable=0;points=[[0,0.5],[1,0.5]];portConstraint=eastwest;strokeWidth=1;" parent="12" vertex="1">
                    <mxGeometry y="494" width="410" height="26" as="geometry"/>
                </mxCell>
                <mxCell id="115" value="- deleteDataDialog: DeleteDataDialog" style="text;strokeColor=none;fillColor=none;align=left;verticalAlign=top;spacingLeft=4;spacingRight=4;overflow=hidden;rotatable=0;points=[[0,0.5],[1,0.5]];portConstraint=eastwest;strokeWidth=1;" vertex="1" parent="12">
                    <mxGeometry y="520" width="410" height="26" as="geometry"/>
                </mxCell>
                <mxCell id="116" value="- scareListener: SharedPreferences.OnSharedPreferenceChangeListner" style="text;strokeColor=none;fillColor=none;align=left;verticalAlign=top;spacingLeft=4;spacingRight=4;overflow=hidden;rotatable=0;points=[[0,0.5],[1,0.5]];portConstraint=eastwest;strokeWidth=1;" vertex="1" parent="12">
                    <mxGeometry y="546" width="410" height="26" as="geometry"/>
                </mxCell>
                <mxCell id="34" value="" style="line;strokeWidth=2;html=1;strokeColor=default;" parent="12" vertex="1">
                    <mxGeometry y="572" width="410" height="10" as="geometry"/>
                </mxCell>
                <mxCell id="30" value="+ onCreateView(): void" style="text;strokeColor=none;fillColor=none;align=left;verticalAlign=top;spacingLeft=4;spacingRight=4;overflow=hidden;rotatable=0;points=[[0,0.5],[1,0.5]];portConstraint=eastwest;strokeWidth=1;" parent="12" vertex="1">
                    <mxGeometry y="582" width="410" height="26" as="geometry"/>
                </mxCell>
                <mxCell id="33" value="-  updateValue(): void" style="text;strokeColor=none;fillColor=none;align=left;verticalAlign=top;spacingLeft=4;spacingRight=4;overflow=hidden;rotatable=0;points=[[0,0.5],[1,0.5]];portConstraint=eastwest;strokeWidth=1;" parent="12" vertex="1">
                    <mxGeometry y="608" width="410" height="26" as="geometry"/>
                </mxCell>
                <mxCell id="32" value="+ onDestroy(): void" style="text;strokeColor=none;fillColor=none;align=left;verticalAlign=top;spacingLeft=4;spacingRight=4;overflow=hidden;rotatable=0;points=[[0,0.5],[1,0.5]];portConstraint=eastwest;strokeWidth=1;" parent="12" vertex="1">
                    <mxGeometry y="634" width="410" height="26" as="geometry"/>
                </mxCell>
                <mxCell id="31" value="+ onCLick(): void" style="text;strokeColor=none;fillColor=none;align=left;verticalAlign=top;spacingLeft=4;spacingRight=4;overflow=hidden;rotatable=0;points=[[0,0.5],[1,0.5]];portConstraint=eastwest;strokeWidth=1;" parent="12" vertex="1">
                    <mxGeometry y="660" width="410" height="26" as="geometry"/>
                </mxCell>
                <mxCell id="119" value="+ deleteRecords(view: View):void" style="text;strokeColor=none;fillColor=none;align=left;verticalAlign=top;spacingLeft=4;spacingRight=4;overflow=hidden;rotatable=0;points=[[0,0.5],[1,0.5]];portConstraint=eastwest;strokeWidth=1;" vertex="1" parent="12">
                    <mxGeometry y="686" width="410" height="26" as="geometry"/>
                </mxCell>
                <mxCell id="35" value="GameLevel ex AppCompat" style="swimlane;fontStyle=0;childLayout=stackLayout;horizontal=1;startSize=26;fillColor=none;horizontalStack=0;resizeParent=1;resizeParentMax=0;resizeLast=0;collapsible=1;marginBottom=0;" parent="1" vertex="1">
                    <mxGeometry x="320" y="40" width="216" height="114" as="geometry"/>
                </mxCell>
                <mxCell id="36" value="none fields" style="text;strokeColor=none;fillColor=none;align=left;verticalAlign=top;spacingLeft=4;spacingRight=4;overflow=hidden;rotatable=0;points=[[0,0.5],[1,0.5]];portConstraint=eastwest;" parent="35" vertex="1">
                    <mxGeometry y="26" width="216" height="26" as="geometry"/>
                </mxCell>
                <mxCell id="39" value="" style="line;strokeWidth=1;html=1;" parent="35" vertex="1">
                    <mxGeometry y="52" width="216" height="10" as="geometry"/>
                </mxCell>
                <mxCell id="37" value="# onCreate(): void" style="text;strokeColor=none;fillColor=none;align=left;verticalAlign=top;spacingLeft=4;spacingRight=4;overflow=hidden;rotatable=0;points=[[0,0.5],[1,0.5]];portConstraint=eastwest;" parent="35" vertex="1">
                    <mxGeometry y="62" width="216" height="26" as="geometry"/>
                </mxCell>
                <mxCell id="38" value="+ onClick(): void" style="text;strokeColor=none;fillColor=none;align=left;verticalAlign=top;spacingLeft=4;spacingRight=4;overflow=hidden;rotatable=0;points=[[0,0.5],[1,0.5]];portConstraint=eastwest;" parent="35" vertex="1">
                    <mxGeometry y="88" width="216" height="26" as="geometry"/>
                </mxCell>
                <mxCell id="45" value="GameAction3 ex AppCompat" style="swimlane;fontStyle=0;childLayout=stackLayout;horizontal=1;startSize=26;fillColor=none;horizontalStack=0;resizeParent=1;resizeParentMax=0;resizeLast=0;collapsible=1;marginBottom=0;" parent="1" vertex="1">
                    <mxGeometry x="570" y="40" width="246" height="374" as="geometry"/>
                </mxCell>
                <mxCell id="46" value="- generateButtons: VariablesButtonsThree" style="text;strokeColor=none;fillColor=none;align=left;verticalAlign=top;spacingLeft=4;spacingRight=4;overflow=hidden;rotatable=0;points=[[0,0.5],[1,0.5]];portConstraint=eastwest;" parent="45" vertex="1">
                    <mxGeometry y="26" width="246" height="26" as="geometry"/>
                </mxCell>
                <mxCell id="54" value="- commonButtons: CommonButtons" style="text;strokeColor=none;fillColor=none;align=left;verticalAlign=top;spacingLeft=4;spacingRight=4;overflow=hidden;rotatable=0;points=[[0,0.5],[1,0.5]];portConstraint=eastwest;" parent="45" vertex="1">
                    <mxGeometry y="52" width="246" height="26" as="geometry"/>
                </mxCell>
                <mxCell id="53" value="- startPhase: boolean" style="text;strokeColor=none;fillColor=none;align=left;verticalAlign=top;spacingLeft=4;spacingRight=4;overflow=hidden;rotatable=0;points=[[0,0.5],[1,0.5]];portConstraint=eastwest;" parent="45" vertex="1">
                    <mxGeometry y="78" width="246" height="26" as="geometry"/>
                </mxCell>
                <mxCell id="52" value="- count: int" style="text;strokeColor=none;fillColor=none;align=left;verticalAlign=top;spacingLeft=4;spacingRight=4;overflow=hidden;rotatable=0;points=[[0,0.5],[1,0.5]];portConstraint=eastwest;" parent="45" vertex="1">
                    <mxGeometry y="104" width="246" height="26" as="geometry"/>
                </mxCell>
                <mxCell id="56" value="- textTime: TextView" style="text;strokeColor=none;fillColor=none;align=left;verticalAlign=top;spacingLeft=4;spacingRight=4;overflow=hidden;rotatable=0;points=[[0,0.5],[1,0.5]];portConstraint=eastwest;" parent="45" vertex="1">
                    <mxGeometry y="130" width="246" height="26" as="geometry"/>
                </mxCell>
                <mxCell id="55" value="- startTime: long" style="text;strokeColor=none;fillColor=none;align=left;verticalAlign=top;spacingLeft=4;spacingRight=4;overflow=hidden;rotatable=0;points=[[0,0.5],[1,0.5]];portConstraint=eastwest;" parent="45" vertex="1">
                    <mxGeometry y="156" width="246" height="26" as="geometry"/>
                </mxCell>
                <mxCell id="51" value="- handler: new Handler()" style="text;strokeColor=none;fillColor=none;align=left;verticalAlign=top;spacingLeft=4;spacingRight=4;overflow=hidden;rotatable=0;points=[[0,0.5],[1,0.5]];portConstraint=eastwest;" parent="45" vertex="1">
                    <mxGeometry y="182" width="246" height="26" as="geometry"/>
                </mxCell>
                <mxCell id="58" value="- date: new SimpleDateFormat()" style="text;strokeColor=none;fillColor=none;align=left;verticalAlign=top;spacingLeft=4;spacingRight=4;overflow=hidden;rotatable=0;points=[[0,0.5],[1,0.5]];portConstraint=eastwest;" parent="45" vertex="1">
                    <mxGeometry y="208" width="246" height="26" as="geometry"/>
                </mxCell>
                <mxCell id="57" value="- timePhase: boolean" style="text;strokeColor=none;fillColor=none;align=left;verticalAlign=top;spacingLeft=4;spacingRight=4;overflow=hidden;rotatable=0;points=[[0,0.5],[1,0.5]];portConstraint=eastwest;" parent="45" vertex="1">
                    <mxGeometry y="234" width="246" height="26" as="geometry"/>
                </mxCell>
                <mxCell id="47" value="" style="line;strokeWidth=1;html=1;" parent="45" vertex="1">
                    <mxGeometry y="260" width="246" height="10" as="geometry"/>
                </mxCell>
                <mxCell id="48" value="# onCreate(): void" style="text;strokeColor=none;fillColor=none;align=left;verticalAlign=top;spacingLeft=4;spacingRight=4;overflow=hidden;rotatable=0;points=[[0,0.5],[1,0.5]];portConstraint=eastwest;" parent="45" vertex="1">
                    <mxGeometry y="270" width="246" height="26" as="geometry"/>
                </mxCell>
                <mxCell id="61" value="+ run(): void" style="text;strokeColor=none;fillColor=none;align=left;verticalAlign=top;spacingLeft=4;spacingRight=4;overflow=hidden;rotatable=0;points=[[0,0.5],[1,0.5]];portConstraint=eastwest;" parent="45" vertex="1">
                    <mxGeometry y="296" width="246" height="26" as="geometry"/>
                </mxCell>
                <mxCell id="49" value="+ onClick(): void" style="text;strokeColor=none;fillColor=none;align=left;verticalAlign=top;spacingLeft=4;spacingRight=4;overflow=hidden;rotatable=0;points=[[0,0.5],[1,0.5]];portConstraint=eastwest;" parent="45" vertex="1">
                    <mxGeometry y="322" width="246" height="26" as="geometry"/>
                </mxCell>
                <mxCell id="62" value="+ handleButtonClick(): void" style="text;strokeColor=none;fillColor=none;align=left;verticalAlign=top;spacingLeft=4;spacingRight=4;overflow=hidden;rotatable=0;points=[[0,0.5],[1,0.5]];portConstraint=eastwest;" parent="45" vertex="1">
                    <mxGeometry y="348" width="246" height="26" as="geometry"/>
                </mxCell>
                <mxCell id="64" value="CompareTime" style="swimlane;fontStyle=0;childLayout=stackLayout;horizontal=1;startSize=26;fillColor=#60a917;horizontalStack=0;resizeParent=1;resizeParentMax=0;resizeLast=0;collapsible=1;marginBottom=0;strokeColor=#2D7600;fontColor=#ffffff;" parent="1" vertex="1">
                    <mxGeometry x="540" y="840" width="220" height="114" as="geometry"/>
                </mxCell>
                <mxCell id="65" value="- defaultArray: ArrayList&lt;String&gt;" style="text;strokeColor=none;fillColor=none;align=left;verticalAlign=top;spacingLeft=4;spacingRight=4;overflow=hidden;rotatable=0;points=[[0,0.5],[1,0.5]];portConstraint=eastwest;" parent="64" vertex="1">
                    <mxGeometry y="26" width="220" height="26" as="geometry"/>
                </mxCell>
                <mxCell id="68" value="" style="line;strokeWidth=1;html=1;" parent="64" vertex="1">
                    <mxGeometry y="52" width="220" height="10" as="geometry"/>
                </mxCell>
                <mxCell id="67" value="+ parseArrayTiime(): ArrayList&lt;String&gt;" style="text;strokeColor=none;fillColor=none;align=left;verticalAlign=top;spacingLeft=4;spacingRight=4;overflow=hidden;rotatable=0;points=[[0,0.5],[1,0.5]];portConstraint=eastwest;" parent="64" vertex="1">
                    <mxGeometry y="62" width="220" height="26" as="geometry"/>
                </mxCell>
                <mxCell id="69" value="+ isShowNewScoreText(): boolean" style="text;strokeColor=none;fillColor=none;align=left;verticalAlign=top;spacingLeft=4;spacingRight=4;overflow=hidden;rotatable=0;points=[[0,0.5],[1,0.5]];portConstraint=eastwest;" parent="64" vertex="1">
                    <mxGeometry y="88" width="220" height="26" as="geometry"/>
                </mxCell>
                <mxCell id="75" value="CommonButtons" style="swimlane;fontStyle=0;childLayout=stackLayout;horizontal=1;startSize=26;fillColor=#60a917;horizontalStack=0;resizeParent=1;resizeParentMax=0;resizeLast=0;collapsible=1;marginBottom=0;fontColor=#ffffff;strokeColor=#2D7600;" parent="1" vertex="1">
                    <mxGeometry x="930" y="40" width="220" height="130" as="geometry"/>
                </mxCell>
                <mxCell id="76" value="+ startButton: Button" style="text;strokeColor=none;fillColor=none;align=left;verticalAlign=top;spacingLeft=4;spacingRight=4;overflow=hidden;rotatable=0;points=[[0,0.5],[1,0.5]];portConstraint=eastwest;" parent="75" vertex="1">
                    <mxGeometry y="26" width="220" height="26" as="geometry"/>
                </mxCell>
                <mxCell id="82" value="+ finishButton: Button" style="text;strokeColor=none;fillColor=none;align=left;verticalAlign=top;spacingLeft=4;spacingRight=4;overflow=hidden;rotatable=0;points=[[0,0.5],[1,0.5]];portConstraint=eastwest;" parent="75" vertex="1">
                    <mxGeometry y="52" width="220" height="26" as="geometry"/>
                </mxCell>
                <mxCell id="81" value="+ isHomeAvailable: Button" style="text;strokeColor=none;fillColor=none;align=left;verticalAlign=top;spacingLeft=4;spacingRight=4;overflow=hidden;rotatable=0;points=[[0,0.5],[1,0.5]];portConstraint=eastwest;" parent="75" vertex="1">
                    <mxGeometry y="78" width="220" height="26" as="geometry"/>
                </mxCell>
                <mxCell id="80" value="+ isRetryAvailablee: Button" style="text;strokeColor=none;fillColor=none;align=left;verticalAlign=top;spacingLeft=4;spacingRight=4;overflow=hidden;rotatable=0;points=[[0,0.5],[1,0.5]];portConstraint=eastwest;" parent="75" vertex="1">
                    <mxGeometry y="104" width="220" height="26" as="geometry"/>
                </mxCell>
                <mxCell id="83" value="VariablesButtonsThree" style="swimlane;fontStyle=0;childLayout=stackLayout;horizontal=1;startSize=26;fillColor=#60a917;horizontalStack=0;resizeParent=1;resizeParentMax=0;resizeLast=0;collapsible=1;marginBottom=0;fontColor=#ffffff;strokeColor=#2D7600;" parent="1" vertex="1">
                    <mxGeometry x="930" y="200" width="220" height="260" as="geometry"/>
                </mxCell>
                <mxCell id="84" value="+ b1: Button" style="text;strokeColor=none;fillColor=none;align=left;verticalAlign=top;spacingLeft=4;spacingRight=4;overflow=hidden;rotatable=0;points=[[0,0.5],[1,0.5]];portConstraint=eastwest;" parent="83" vertex="1">
                    <mxGeometry y="26" width="220" height="26" as="geometry"/>
                </mxCell>
                <mxCell id="95" value="+ b2: Button" style="text;strokeColor=none;fillColor=none;align=left;verticalAlign=top;spacingLeft=4;spacingRight=4;overflow=hidden;rotatable=0;points=[[0,0.5],[1,0.5]];portConstraint=eastwest;" parent="83" vertex="1">
                    <mxGeometry y="52" width="220" height="26" as="geometry"/>
                </mxCell>
                <mxCell id="94" value="+ b3: Button" style="text;strokeColor=none;fillColor=none;align=left;verticalAlign=top;spacingLeft=4;spacingRight=4;overflow=hidden;rotatable=0;points=[[0,0.5],[1,0.5]];portConstraint=eastwest;" parent="83" vertex="1">
                    <mxGeometry y="78" width="220" height="26" as="geometry"/>
                </mxCell>
                <mxCell id="93" value="+ b4: Button" style="text;strokeColor=none;fillColor=none;align=left;verticalAlign=top;spacingLeft=4;spacingRight=4;overflow=hidden;rotatable=0;points=[[0,0.5],[1,0.5]];portConstraint=eastwest;" parent="83" vertex="1">
                    <mxGeometry y="104" width="220" height="26" as="geometry"/>
                </mxCell>
                <mxCell id="92" value="+ b5: Button" style="text;strokeColor=none;fillColor=none;align=left;verticalAlign=top;spacingLeft=4;spacingRight=4;overflow=hidden;rotatable=0;points=[[0,0.5],[1,0.5]];portConstraint=eastwest;" parent="83" vertex="1">
                    <mxGeometry y="130" width="220" height="26" as="geometry"/>
                </mxCell>
                <mxCell id="91" value="+ b6: Button" style="text;strokeColor=none;fillColor=none;align=left;verticalAlign=top;spacingLeft=4;spacingRight=4;overflow=hidden;rotatable=0;points=[[0,0.5],[1,0.5]];portConstraint=eastwest;" parent="83" vertex="1">
                    <mxGeometry y="156" width="220" height="26" as="geometry"/>
                </mxCell>
                <mxCell id="90" value="+ b7: Button" style="text;strokeColor=none;fillColor=none;align=left;verticalAlign=top;spacingLeft=4;spacingRight=4;overflow=hidden;rotatable=0;points=[[0,0.5],[1,0.5]];portConstraint=eastwest;" parent="83" vertex="1">
                    <mxGeometry y="182" width="220" height="26" as="geometry"/>
                </mxCell>
                <mxCell id="89" value="+ b8: Button" style="text;strokeColor=none;fillColor=none;align=left;verticalAlign=top;spacingLeft=4;spacingRight=4;overflow=hidden;rotatable=0;points=[[0,0.5],[1,0.5]];portConstraint=eastwest;" parent="83" vertex="1">
                    <mxGeometry y="208" width="220" height="26" as="geometry"/>
                </mxCell>
                <mxCell id="88" value="+ b9: Button" style="text;strokeColor=none;fillColor=none;align=left;verticalAlign=top;spacingLeft=4;spacingRight=4;overflow=hidden;rotatable=0;points=[[0,0.5],[1,0.5]];portConstraint=eastwest;" parent="83" vertex="1">
                    <mxGeometry y="234" width="220" height="26" as="geometry"/>
                </mxCell>
                <mxCell id="111" style="edgeStyle=none;html=1;exitX=0;exitY=0;exitDx=0;exitDy=0;entryX=1;entryY=0;entryDx=0;entryDy=0;" parent="1" source="96" target="83" edge="1">
                    <mxGeometry relative="1" as="geometry"/>
                </mxCell>
                <mxCell id="96" value="VariablesButtonsFour ex VariablesButtonsThree" style="swimlane;fontStyle=0;childLayout=stackLayout;horizontal=1;startSize=26;fillColor=#60a917;horizontalStack=0;resizeParent=1;resizeParentMax=0;resizeLast=0;collapsible=1;marginBottom=0;fontColor=#ffffff;strokeColor=#2D7600;" parent="1" vertex="1">
                    <mxGeometry x="1230" y="200" width="270" height="208" as="geometry"/>
                </mxCell>
                <mxCell id="97" value="+ b10: Button" style="text;strokeColor=none;fillColor=none;align=left;verticalAlign=top;spacingLeft=4;spacingRight=4;overflow=hidden;rotatable=0;points=[[0,0.5],[1,0.5]];portConstraint=eastwest;" parent="96" vertex="1">
                    <mxGeometry y="26" width="270" height="26" as="geometry"/>
                </mxCell>
                <mxCell id="98" value="+ b11: Button" style="text;strokeColor=none;fillColor=none;align=left;verticalAlign=top;spacingLeft=4;spacingRight=4;overflow=hidden;rotatable=0;points=[[0,0.5],[1,0.5]];portConstraint=eastwest;" parent="96" vertex="1">
                    <mxGeometry y="52" width="270" height="26" as="geometry"/>
                </mxCell>
                <mxCell id="99" value="+ b12: Button" style="text;strokeColor=none;fillColor=none;align=left;verticalAlign=top;spacingLeft=4;spacingRight=4;overflow=hidden;rotatable=0;points=[[0,0.5],[1,0.5]];portConstraint=eastwest;" parent="96" vertex="1">
                    <mxGeometry y="78" width="270" height="26" as="geometry"/>
                </mxCell>
                <mxCell id="100" value="+ b13: Button" style="text;strokeColor=none;fillColor=none;align=left;verticalAlign=top;spacingLeft=4;spacingRight=4;overflow=hidden;rotatable=0;points=[[0,0.5],[1,0.5]];portConstraint=eastwest;" parent="96" vertex="1">
                    <mxGeometry y="104" width="270" height="26" as="geometry"/>
                </mxCell>
                <mxCell id="101" value="+ b14: Button" style="text;strokeColor=none;fillColor=none;align=left;verticalAlign=top;spacingLeft=4;spacingRight=4;overflow=hidden;rotatable=0;points=[[0,0.5],[1,0.5]];portConstraint=eastwest;" parent="96" vertex="1">
                    <mxGeometry y="130" width="270" height="26" as="geometry"/>
                </mxCell>
                <mxCell id="102" value="+ b15: Button" style="text;strokeColor=none;fillColor=none;align=left;verticalAlign=top;spacingLeft=4;spacingRight=4;overflow=hidden;rotatable=0;points=[[0,0.5],[1,0.5]];portConstraint=eastwest;" parent="96" vertex="1">
                    <mxGeometry y="156" width="270" height="26" as="geometry"/>
                </mxCell>
                <mxCell id="103" value="+ b16: Button" style="text;strokeColor=none;fillColor=none;align=left;verticalAlign=top;spacingLeft=4;spacingRight=4;overflow=hidden;rotatable=0;points=[[0,0.5],[1,0.5]];portConstraint=eastwest;" parent="96" vertex="1">
                    <mxGeometry y="182" width="270" height="26" as="geometry"/>
                </mxCell>
                <mxCell id="105" style="edgeStyle=none;html=1;exitX=0;exitY=0.5;exitDx=0;exitDy=0;dashed=1;entryX=1;entryY=0;entryDx=0;entryDy=0;" parent="1" source="26" target="64" edge="1">
                    <mxGeometry relative="1" as="geometry">
                        <mxPoint x="710" y="730" as="targetPoint"/>
                    </mxGeometry>
                </mxCell>
                <mxCell id="107" style="edgeStyle=none;html=1;exitX=0;exitY=0.5;exitDx=0;exitDy=0;entryX=1;entryY=0;entryDx=0;entryDy=0;dashed=1;" parent="1" source="16" target="70" edge="1">
                    <mxGeometry relative="1" as="geometry"/>
                </mxCell>
                <mxCell id="108" style="edgeStyle=none;html=1;exitX=1;exitY=0.5;exitDx=0;exitDy=0;dashed=1;entryX=0.035;entryY=-0.027;entryDx=0;entryDy=0;entryPerimeter=0;" parent="1" source="48" target="75" edge="1">
                    <mxGeometry relative="1" as="geometry">
                        <mxPoint x="910" y="40" as="targetPoint"/>
                    </mxGeometry>
                </mxCell>
                <mxCell id="109" style="edgeStyle=none;html=1;exitX=1;exitY=0.5;exitDx=0;exitDy=0;entryX=0;entryY=0;entryDx=0;entryDy=0;dashed=1;" parent="1" source="48" target="83" edge="1">
                    <mxGeometry relative="1" as="geometry"/>
                </mxCell>
                <mxCell id="176" value="Score2Fragment ex Fragment" style="swimlane;fontStyle=0;childLayout=stackLayout;horizontal=1;startSize=26;fillColor=none;horizontalStack=0;resizeParent=1;resizeParentMax=0;resizeLast=0;collapsible=1;marginBottom=0;strokeColor=default;strokeWidth=1;" vertex="1" parent="1">
                    <mxGeometry x="1080" y="1260" width="410" height="712" as="geometry"/>
                </mxCell>
                <mxCell id="177" value="+ pref: SharePreferences" style="text;strokeColor=none;fillColor=none;align=left;verticalAlign=top;spacingLeft=4;spacingRight=4;overflow=hidden;rotatable=0;points=[[0,0.5],[1,0.5]];portConstraint=eastwest;strokeWidth=1;" vertex="1" parent="176">
                    <mxGeometry y="26" width="410" height="26" as="geometry"/>
                </mxCell>
                <mxCell id="178" value="- timeText4: TextView" style="text;strokeColor=none;fillColor=none;align=left;verticalAlign=top;spacingLeft=4;spacingRight=4;overflow=hidden;rotatable=0;points=[[0,0.5],[1,0.5]];portConstraint=eastwest;strokeWidth=1;" vertex="1" parent="176">
                    <mxGeometry y="52" width="410" height="26" as="geometry"/>
                </mxCell>
                <mxCell id="179" value="- timeText5: TextView" style="text;strokeColor=none;fillColor=none;align=left;verticalAlign=top;spacingLeft=4;spacingRight=4;overflow=hidden;rotatable=0;points=[[0,0.5],[1,0.5]];portConstraint=eastwest;strokeWidth=1;" vertex="1" parent="176">
                    <mxGeometry y="78" width="410" height="26" as="geometry"/>
                </mxCell>
                <mxCell id="180" value="- timeText6: TextView" style="text;strokeColor=none;fillColor=none;align=left;verticalAlign=top;spacingLeft=4;spacingRight=4;overflow=hidden;rotatable=0;points=[[0,0.5],[1,0.5]];portConstraint=eastwest;strokeWidth=1;" vertex="1" parent="176">
                    <mxGeometry y="104" width="410" height="26" as="geometry"/>
                </mxCell>
                <mxCell id="181" value="- timeTitle2: TextView" style="text;strokeColor=none;fillColor=none;align=left;verticalAlign=top;spacingLeft=4;spacingRight=4;overflow=hidden;rotatable=0;points=[[0,0.5],[1,0.5]];portConstraint=eastwest;strokeWidth=1;" vertex="1" parent="176">
                    <mxGeometry y="130" width="410" height="26" as="geometry"/>
                </mxCell>
                <mxCell id="182" value="- newScoreText2: TextView" style="text;strokeColor=none;fillColor=none;align=left;verticalAlign=top;spacingLeft=4;spacingRight=4;overflow=hidden;rotatable=0;points=[[0,0.5],[1,0.5]];portConstraint=eastwest;strokeWidth=1;" vertex="1" parent="176">
                    <mxGeometry y="156" width="410" height="26" as="geometry"/>
                </mxCell>
                <mxCell id="183" value="- highScoreText: TextView" style="text;strokeColor=none;fillColor=none;align=left;verticalAlign=top;spacingLeft=4;spacingRight=4;overflow=hidden;rotatable=0;points=[[0,0.5],[1,0.5]];portConstraint=eastwest;strokeWidth=1;" vertex="1" parent="176">
                    <mxGeometry y="182" width="410" height="26" as="geometry"/>
                </mxCell>
                <mxCell id="184" value="- scoreMedium: String" style="text;strokeColor=none;fillColor=none;align=left;verticalAlign=top;spacingLeft=4;spacingRight=4;overflow=hidden;rotatable=0;points=[[0,0.5],[1,0.5]];portConstraint=eastwest;strokeWidth=1;" vertex="1" parent="176">
                    <mxGeometry y="208" width="410" height="26" as="geometry"/>
                </mxCell>
                <mxCell id="185" value="- score4: String" style="text;strokeColor=none;fillColor=none;align=left;verticalAlign=top;spacingLeft=4;spacingRight=4;overflow=hidden;rotatable=0;points=[[0,0.5],[1,0.5]];portConstraint=eastwest;strokeWidth=1;" vertex="1" parent="176">
                    <mxGeometry y="234" width="410" height="26" as="geometry"/>
                </mxCell>
                <mxCell id="186" value="- score5: String" style="text;strokeColor=none;fillColor=none;align=left;verticalAlign=top;spacingLeft=4;spacingRight=4;overflow=hidden;rotatable=0;points=[[0,0.5],[1,0.5]];portConstraint=eastwest;strokeWidth=1;" vertex="1" parent="176">
                    <mxGeometry y="260" width="410" height="26" as="geometry"/>
                </mxCell>
                <mxCell id="187" value="- score6: String" style="text;strokeColor=none;fillColor=none;align=left;verticalAlign=top;spacingLeft=4;spacingRight=4;overflow=hidden;rotatable=0;points=[[0,0.5],[1,0.5]];portConstraint=eastwest;strokeWidth=1;" vertex="1" parent="176">
                    <mxGeometry y="286" width="410" height="26" as="geometry"/>
                </mxCell>
                <mxCell id="188" value="- homeButton2: Button" style="text;strokeColor=none;fillColor=none;align=left;verticalAlign=top;spacingLeft=4;spacingRight=4;overflow=hidden;rotatable=0;points=[[0,0.5],[1,0.5]];portConstraint=eastwest;strokeWidth=1;" vertex="1" parent="176">
                    <mxGeometry y="312" width="410" height="26" as="geometry"/>
                </mxCell>
                <mxCell id="189" value="- retryButton2: Button" style="text;strokeColor=none;fillColor=none;align=left;verticalAlign=top;spacingLeft=4;spacingRight=4;overflow=hidden;rotatable=0;points=[[0,0.5],[1,0.5]];portConstraint=eastwest;strokeWidth=1;" vertex="1" parent="176">
                    <mxGeometry y="338" width="410" height="26" as="geometry"/>
                </mxCell>
                <mxCell id="190" value="- resetButton2: Button" style="text;strokeColor=none;fillColor=none;align=left;verticalAlign=top;spacingLeft=4;spacingRight=4;overflow=hidden;rotatable=0;points=[[0,0.5],[1,0.5]];portConstraint=eastwest;strokeWidth=1;" vertex="1" parent="176">
                    <mxGeometry y="364" width="410" height="26" as="geometry"/>
                </mxCell>
                <mxCell id="191" value="- scoreArray: ArrayList&lt;Styring&gt;" style="text;strokeColor=none;fillColor=none;align=left;verticalAlign=top;spacingLeft=4;spacingRight=4;overflow=hidden;rotatable=0;points=[[0,0.5],[1,0.5]];portConstraint=eastwest;strokeWidth=1;" vertex="1" parent="176">
                    <mxGeometry y="390" width="410" height="26" as="geometry"/>
                </mxCell>
                <mxCell id="192" value="- formattedArray: ArrayList&lt;Styring&gt;" style="text;strokeColor=none;fillColor=none;align=left;verticalAlign=top;spacingLeft=4;spacingRight=4;overflow=hidden;rotatable=0;points=[[0,0.5],[1,0.5]];portConstraint=eastwest;strokeWidth=1;" vertex="1" parent="176">
                    <mxGeometry y="416" width="410" height="26" as="geometry"/>
                </mxCell>
                <mxCell id="193" value="- showNewScoreText: boolean" style="text;strokeColor=none;fillColor=none;align=left;verticalAlign=top;spacingLeft=4;spacingRight=4;overflow=hidden;rotatable=0;points=[[0,0.5],[1,0.5]];portConstraint=eastwest;strokeWidth=1;" vertex="1" parent="176">
                    <mxGeometry y="442" width="410" height="26" as="geometry"/>
                </mxCell>
                <mxCell id="194" value="- compareTime: new CompareTime()" style="text;strokeColor=none;fillColor=none;align=left;verticalAlign=top;spacingLeft=4;spacingRight=4;overflow=hidden;rotatable=0;points=[[0,0.5],[1,0.5]];portConstraint=eastwest;strokeWidth=1;" vertex="1" parent="176">
                    <mxGeometry y="468" width="410" height="26" as="geometry"/>
                </mxCell>
                <mxCell id="195" value="- createArray: new CreateArray()" style="text;strokeColor=none;fillColor=none;align=left;verticalAlign=top;spacingLeft=4;spacingRight=4;overflow=hidden;rotatable=0;points=[[0,0.5],[1,0.5]];portConstraint=eastwest;strokeWidth=1;" vertex="1" parent="176">
                    <mxGeometry y="494" width="410" height="26" as="geometry"/>
                </mxCell>
                <mxCell id="196" value="- deleteDataDialog: DeleteDataDialog" style="text;strokeColor=none;fillColor=none;align=left;verticalAlign=top;spacingLeft=4;spacingRight=4;overflow=hidden;rotatable=0;points=[[0,0.5],[1,0.5]];portConstraint=eastwest;strokeWidth=1;" vertex="1" parent="176">
                    <mxGeometry y="520" width="410" height="26" as="geometry"/>
                </mxCell>
                <mxCell id="197" value="- scareListener: SharedPreferences.OnSharedPreferenceChangeListner" style="text;strokeColor=none;fillColor=none;align=left;verticalAlign=top;spacingLeft=4;spacingRight=4;overflow=hidden;rotatable=0;points=[[0,0.5],[1,0.5]];portConstraint=eastwest;strokeWidth=1;" vertex="1" parent="176">
                    <mxGeometry y="546" width="410" height="26" as="geometry"/>
                </mxCell>
                <mxCell id="198" value="" style="line;strokeWidth=2;html=1;strokeColor=default;" vertex="1" parent="176">
                    <mxGeometry y="572" width="410" height="10" as="geometry"/>
                </mxCell>
                <mxCell id="199" value="+ onCreateView(): void" style="text;strokeColor=none;fillColor=none;align=left;verticalAlign=top;spacingLeft=4;spacingRight=4;overflow=hidden;rotatable=0;points=[[0,0.5],[1,0.5]];portConstraint=eastwest;strokeWidth=1;" vertex="1" parent="176">
                    <mxGeometry y="582" width="410" height="26" as="geometry"/>
                </mxCell>
                <mxCell id="200" value="-  updateValue(): void" style="text;strokeColor=none;fillColor=none;align=left;verticalAlign=top;spacingLeft=4;spacingRight=4;overflow=hidden;rotatable=0;points=[[0,0.5],[1,0.5]];portConstraint=eastwest;strokeWidth=1;" vertex="1" parent="176">
                    <mxGeometry y="608" width="410" height="26" as="geometry"/>
                </mxCell>
                <mxCell id="201" value="+ onDestroy(): void" style="text;strokeColor=none;fillColor=none;align=left;verticalAlign=top;spacingLeft=4;spacingRight=4;overflow=hidden;rotatable=0;points=[[0,0.5],[1,0.5]];portConstraint=eastwest;strokeWidth=1;" vertex="1" parent="176">
                    <mxGeometry y="634" width="410" height="26" as="geometry"/>
                </mxCell>
                <mxCell id="202" value="+ onCLick(): void" style="text;strokeColor=none;fillColor=none;align=left;verticalAlign=top;spacingLeft=4;spacingRight=4;overflow=hidden;rotatable=0;points=[[0,0.5],[1,0.5]];portConstraint=eastwest;strokeWidth=1;" vertex="1" parent="176">
                    <mxGeometry y="660" width="410" height="26" as="geometry"/>
                </mxCell>
                <mxCell id="203" value="+ deleteRecords(view: View):void" style="text;strokeColor=none;fillColor=none;align=left;verticalAlign=top;spacingLeft=4;spacingRight=4;overflow=hidden;rotatable=0;points=[[0,0.5],[1,0.5]];portConstraint=eastwest;strokeWidth=1;" vertex="1" parent="176">
                    <mxGeometry y="686" width="410" height="26" as="geometry"/>
                </mxCell>
                <mxCell id="214" style="edgeStyle=none;html=1;dashed=1;exitX=-0.008;exitY=0.127;exitDx=0;exitDy=0;exitPerimeter=0;entryX=1;entryY=0;entryDx=0;entryDy=0;" edge="1" parent="1" source="195" target="70">
                    <mxGeometry relative="1" as="geometry">
                        <mxPoint x="730" y="980" as="targetPoint"/>
                    </mxGeometry>
                </mxCell>
                <mxCell id="70" value="CreateArray" style="swimlane;fontStyle=0;childLayout=stackLayout;horizontal=1;startSize=26;fillColor=#60a917;horizontalStack=0;resizeParent=1;resizeParentMax=0;resizeLast=0;collapsible=1;marginBottom=0;fontColor=#ffffff;strokeColor=#2D7600;" parent="1" vertex="1">
                    <mxGeometry x="256" y="970" width="240" height="114" as="geometry"/>
                </mxCell>
                <mxCell id="71" value="none fields" style="text;strokeColor=none;fillColor=none;align=left;verticalAlign=top;spacingLeft=4;spacingRight=4;overflow=hidden;rotatable=0;points=[[0,0.5],[1,0.5]];portConstraint=eastwest;" parent="70" vertex="1">
                    <mxGeometry y="26" width="240" height="26" as="geometry"/>
                </mxCell>
                <mxCell id="72" value="" style="line;strokeWidth=1;html=1;" parent="70" vertex="1">
                    <mxGeometry y="52" width="240" height="10" as="geometry"/>
                </mxCell>
                <mxCell id="73" value="+ createArray(): ArrayList&lt;String&gt;" style="text;strokeColor=none;fillColor=none;align=left;verticalAlign=top;spacingLeft=4;spacingRight=4;overflow=hidden;rotatable=0;points=[[0,0.5],[1,0.5]];portConstraint=eastwest;" parent="70" vertex="1">
                    <mxGeometry y="62" width="240" height="26" as="geometry"/>
                </mxCell>
                <mxCell id="74" value="+ createStringArray(): ArrayList&lt;String&gt;" style="text;strokeColor=none;fillColor=none;align=left;verticalAlign=top;spacingLeft=4;spacingRight=4;overflow=hidden;rotatable=0;points=[[0,0.5],[1,0.5]];portConstraint=eastwest;" parent="70" vertex="1">
                    <mxGeometry y="88" width="240" height="26" as="geometry"/>
                </mxCell>
                <mxCell id="220" style="edgeStyle=none;html=1;dashed=1;exitX=0;exitY=0.5;exitDx=0;exitDy=0;entryX=1;entryY=0;entryDx=0;entryDy=0;" edge="1" parent="1" source="194" target="64">
                    <mxGeometry relative="1" as="geometry">
                        <mxPoint x="720" y="810" as="targetPoint"/>
                    </mxGeometry>
                </mxCell>
                <mxCell id="221" style="edgeStyle=none;html=1;exitX=0;exitY=0.5;exitDx=0;exitDy=0;entryX=0;entryY=0;entryDx=0;entryDy=0;dashed=1;" edge="1" parent="1" source="48" target="70">
                    <mxGeometry relative="1" as="geometry"/>
                </mxCell>
                <mxCell id="222" value="GameAction4 ex AppCompat" style="swimlane;fontStyle=0;childLayout=stackLayout;horizontal=1;startSize=26;fillColor=none;horizontalStack=0;resizeParent=1;resizeParentMax=0;resizeLast=0;collapsible=1;marginBottom=0;" vertex="1" parent="1">
                    <mxGeometry x="570" y="430" width="246" height="374" as="geometry"/>
                </mxCell>
                <mxCell id="223" value="- generateButtons: VariablesButtonsFour" style="text;strokeColor=none;fillColor=none;align=left;verticalAlign=top;spacingLeft=4;spacingRight=4;overflow=hidden;rotatable=0;points=[[0,0.5],[1,0.5]];portConstraint=eastwest;" vertex="1" parent="222">
                    <mxGeometry y="26" width="246" height="26" as="geometry"/>
                </mxCell>
                <mxCell id="224" value="- commonButtons: CommonButtons" style="text;strokeColor=none;fillColor=none;align=left;verticalAlign=top;spacingLeft=4;spacingRight=4;overflow=hidden;rotatable=0;points=[[0,0.5],[1,0.5]];portConstraint=eastwest;" vertex="1" parent="222">
                    <mxGeometry y="52" width="246" height="26" as="geometry"/>
                </mxCell>
                <mxCell id="225" value="- startPhase: boolean" style="text;strokeColor=none;fillColor=none;align=left;verticalAlign=top;spacingLeft=4;spacingRight=4;overflow=hidden;rotatable=0;points=[[0,0.5],[1,0.5]];portConstraint=eastwest;" vertex="1" parent="222">
                    <mxGeometry y="78" width="246" height="26" as="geometry"/>
                </mxCell>
                <mxCell id="226" value="- count: int" style="text;strokeColor=none;fillColor=none;align=left;verticalAlign=top;spacingLeft=4;spacingRight=4;overflow=hidden;rotatable=0;points=[[0,0.5],[1,0.5]];portConstraint=eastwest;" vertex="1" parent="222">
                    <mxGeometry y="104" width="246" height="26" as="geometry"/>
                </mxCell>
                <mxCell id="227" value="- textTime: TextView" style="text;strokeColor=none;fillColor=none;align=left;verticalAlign=top;spacingLeft=4;spacingRight=4;overflow=hidden;rotatable=0;points=[[0,0.5],[1,0.5]];portConstraint=eastwest;" vertex="1" parent="222">
                    <mxGeometry y="130" width="246" height="26" as="geometry"/>
                </mxCell>
                <mxCell id="228" value="- startTime: long" style="text;strokeColor=none;fillColor=none;align=left;verticalAlign=top;spacingLeft=4;spacingRight=4;overflow=hidden;rotatable=0;points=[[0,0.5],[1,0.5]];portConstraint=eastwest;" vertex="1" parent="222">
                    <mxGeometry y="156" width="246" height="26" as="geometry"/>
                </mxCell>
                <mxCell id="229" value="- handler: new Handler()" style="text;strokeColor=none;fillColor=none;align=left;verticalAlign=top;spacingLeft=4;spacingRight=4;overflow=hidden;rotatable=0;points=[[0,0.5],[1,0.5]];portConstraint=eastwest;" vertex="1" parent="222">
                    <mxGeometry y="182" width="246" height="26" as="geometry"/>
                </mxCell>
                <mxCell id="230" value="- date: new SimpleDateFormat()" style="text;strokeColor=none;fillColor=none;align=left;verticalAlign=top;spacingLeft=4;spacingRight=4;overflow=hidden;rotatable=0;points=[[0,0.5],[1,0.5]];portConstraint=eastwest;" vertex="1" parent="222">
                    <mxGeometry y="208" width="246" height="26" as="geometry"/>
                </mxCell>
                <mxCell id="231" value="- timePhase: boolean" style="text;strokeColor=none;fillColor=none;align=left;verticalAlign=top;spacingLeft=4;spacingRight=4;overflow=hidden;rotatable=0;points=[[0,0.5],[1,0.5]];portConstraint=eastwest;" vertex="1" parent="222">
                    <mxGeometry y="234" width="246" height="26" as="geometry"/>
                </mxCell>
                <mxCell id="232" value="" style="line;strokeWidth=1;html=1;" vertex="1" parent="222">
                    <mxGeometry y="260" width="246" height="10" as="geometry"/>
                </mxCell>
                <mxCell id="233" value="# onCreate(): void" style="text;strokeColor=none;fillColor=none;align=left;verticalAlign=top;spacingLeft=4;spacingRight=4;overflow=hidden;rotatable=0;points=[[0,0.5],[1,0.5]];portConstraint=eastwest;" vertex="1" parent="222">
                    <mxGeometry y="270" width="246" height="26" as="geometry"/>
                </mxCell>
                <mxCell id="234" value="+ run(): void" style="text;strokeColor=none;fillColor=none;align=left;verticalAlign=top;spacingLeft=4;spacingRight=4;overflow=hidden;rotatable=0;points=[[0,0.5],[1,0.5]];portConstraint=eastwest;" vertex="1" parent="222">
                    <mxGeometry y="296" width="246" height="26" as="geometry"/>
                </mxCell>
                <mxCell id="235" value="+ onClick(): void" style="text;strokeColor=none;fillColor=none;align=left;verticalAlign=top;spacingLeft=4;spacingRight=4;overflow=hidden;rotatable=0;points=[[0,0.5],[1,0.5]];portConstraint=eastwest;" vertex="1" parent="222">
                    <mxGeometry y="322" width="246" height="26" as="geometry"/>
                </mxCell>
                <mxCell id="236" value="+ handleButtonClick(): void" style="text;strokeColor=none;fillColor=none;align=left;verticalAlign=top;spacingLeft=4;spacingRight=4;overflow=hidden;rotatable=0;points=[[0,0.5],[1,0.5]];portConstraint=eastwest;" vertex="1" parent="222">
                    <mxGeometry y="348" width="246" height="26" as="geometry"/>
                </mxCell>
                <mxCell id="237" style="edgeStyle=none;html=1;entryX=0;entryY=0;entryDx=0;entryDy=0;dashed=1;exitX=1;exitY=0.5;exitDx=0;exitDy=0;" edge="1" parent="1" source="233" target="96">
                    <mxGeometry relative="1" as="geometry"/>
                </mxCell>
                <mxCell id="238" style="edgeStyle=none;html=1;dashed=1;entryX=0.027;entryY=-0.033;entryDx=0;entryDy=0;entryPerimeter=0;exitX=1;exitY=0.5;exitDx=0;exitDy=0;" edge="1" parent="1" source="233" target="75">
                    <mxGeometry relative="1" as="geometry">
                        <mxPoint x="870" y="50" as="targetPoint"/>
                    </mxGeometry>
                </mxCell>
                <mxCell id="239" style="edgeStyle=none;html=1;dashed=1;entryX=0;entryY=0;entryDx=0;entryDy=0;exitX=0;exitY=0.5;exitDx=0;exitDy=0;" edge="1" parent="1" source="233" target="70">
                    <mxGeometry relative="1" as="geometry">
                        <mxPoint x="250" y="940" as="targetPoint"/>
                    </mxGeometry>
                </mxCell>
                <mxCell id="240" value="ViewPagerAdapter ex FragmentStateAdapter" style="swimlane;fontStyle=0;childLayout=stackLayout;horizontal=1;startSize=26;fillColor=#60a917;horizontalStack=0;resizeParent=1;resizeParentMax=0;resizeLast=0;collapsible=1;marginBottom=0;fontColor=#ffffff;strokeColor=#2D7600;" vertex="1" parent="1">
                    <mxGeometry x="134" y="270" width="280" height="270" as="geometry"/>
                </mxCell>
                <mxCell id="241" value="- titleIds: List&lt;Integer&gt;" style="text;strokeColor=none;fillColor=none;align=left;verticalAlign=top;spacingLeft=4;spacingRight=4;overflow=hidden;rotatable=0;points=[[0,0.5],[1,0.5]];portConstraint=eastwest;" vertex="1" parent="240">
                    <mxGeometry y="26" width="280" height="26" as="geometry"/>
                </mxCell>
                <mxCell id="248" value="- fragments: List&lt;Fragment&gt;" style="text;strokeColor=none;fillColor=none;align=left;verticalAlign=top;spacingLeft=4;spacingRight=4;overflow=hidden;rotatable=0;points=[[0,0.5],[1,0.5]];portConstraint=eastwest;" vertex="1" parent="240">
                    <mxGeometry y="52" width="280" height="26" as="geometry"/>
                </mxCell>
                <mxCell id="247" value="- score1Fragment: Score1Fragment" style="text;strokeColor=none;fillColor=none;align=left;verticalAlign=top;spacingLeft=4;spacingRight=4;overflow=hidden;rotatable=0;points=[[0,0.5],[1,0.5]];portConstraint=eastwest;" vertex="1" parent="240">
                    <mxGeometry y="78" width="280" height="26" as="geometry"/>
                </mxCell>
                <mxCell id="246" value="- score2Fragment: Score2Fragment" style="text;strokeColor=none;fillColor=none;align=left;verticalAlign=top;spacingLeft=4;spacingRight=4;overflow=hidden;rotatable=0;points=[[0,0.5],[1,0.5]];portConstraint=eastwest;" vertex="1" parent="240">
                    <mxGeometry y="104" width="280" height="26" as="geometry"/>
                </mxCell>
                <mxCell id="245" value="- budle: Budle" style="text;strokeColor=none;fillColor=none;align=left;verticalAlign=top;spacingLeft=4;spacingRight=4;overflow=hidden;rotatable=0;points=[[0,0.5],[1,0.5]];portConstraint=eastwest;" vertex="1" parent="240">
                    <mxGeometry y="130" width="280" height="26" as="geometry"/>
                </mxCell>
                <mxCell id="242" value="" style="line;strokeWidth=1;html=1;" vertex="1" parent="240">
                    <mxGeometry y="156" width="280" height="10" as="geometry"/>
                </mxCell>
                <mxCell id="243" value="+ ViewPagerAdapter(): constructor" style="text;strokeColor=none;fillColor=none;align=left;verticalAlign=top;spacingLeft=4;spacingRight=4;overflow=hidden;rotatable=0;points=[[0,0.5],[1,0.5]];portConstraint=eastwest;" vertex="1" parent="240">
                    <mxGeometry y="166" width="280" height="26" as="geometry"/>
                </mxCell>
                <mxCell id="244" value="+ getItemCount(): int" style="text;strokeColor=none;fillColor=none;align=left;verticalAlign=top;spacingLeft=4;spacingRight=4;overflow=hidden;rotatable=0;points=[[0,0.5],[1,0.5]];portConstraint=eastwest;" vertex="1" parent="240">
                    <mxGeometry y="192" width="280" height="26" as="geometry"/>
                </mxCell>
                <mxCell id="250" value="+ createFragment(): Fragment" style="text;strokeColor=none;fillColor=none;align=left;verticalAlign=top;spacingLeft=4;spacingRight=4;overflow=hidden;rotatable=0;points=[[0,0.5],[1,0.5]];portConstraint=eastwest;" vertex="1" parent="240">
                    <mxGeometry y="218" width="280" height="26" as="geometry"/>
                </mxCell>
                <mxCell id="249" value="+ getTitleId(): int" style="text;strokeColor=none;fillColor=none;align=left;verticalAlign=top;spacingLeft=4;spacingRight=4;overflow=hidden;rotatable=0;points=[[0,0.5],[1,0.5]];portConstraint=eastwest;" vertex="1" parent="240">
                    <mxGeometry y="244" width="280" height="26" as="geometry"/>
                </mxCell>
                <mxCell id="251" value="DeleteDataDialog ex DialogFragment" style="swimlane;fontStyle=0;childLayout=stackLayout;horizontal=1;startSize=26;fillColor=#60a917;horizontalStack=0;resizeParent=1;resizeParentMax=0;resizeLast=0;collapsible=1;marginBottom=0;fontColor=#ffffff;strokeColor=#2D7600;" vertex="1" parent="1">
                    <mxGeometry x="586" y="1290" width="280" height="140" as="geometry"/>
                </mxCell>
                <mxCell id="252" value="- deleteMethod: Runnable" style="text;strokeColor=none;fillColor=none;align=left;verticalAlign=top;spacingLeft=4;spacingRight=4;overflow=hidden;rotatable=0;points=[[0,0.5],[1,0.5]];portConstraint=eastwest;" vertex="1" parent="251">
                    <mxGeometry y="26" width="280" height="26" as="geometry"/>
                </mxCell>
                <mxCell id="257" value="" style="line;strokeWidth=1;html=1;" vertex="1" parent="251">
                    <mxGeometry y="52" width="280" height="10" as="geometry"/>
                </mxCell>
                <mxCell id="258" value="+ DeleteDataDialog(): constructor" style="text;strokeColor=none;fillColor=none;align=left;verticalAlign=top;spacingLeft=4;spacingRight=4;overflow=hidden;rotatable=0;points=[[0,0.5],[1,0.5]];portConstraint=eastwest;" vertex="1" parent="251">
                    <mxGeometry y="62" width="280" height="26" as="geometry"/>
                </mxCell>
                <mxCell id="259" value="+ executeDelete(): void" style="text;strokeColor=none;fillColor=none;align=left;verticalAlign=top;spacingLeft=4;spacingRight=4;overflow=hidden;rotatable=0;points=[[0,0.5],[1,0.5]];portConstraint=eastwest;" vertex="1" parent="251">
                    <mxGeometry y="88" width="280" height="26" as="geometry"/>
                </mxCell>
                <mxCell id="260" value="+ onCreateDialog(): Dialog" style="text;strokeColor=none;fillColor=none;align=left;verticalAlign=top;spacingLeft=4;spacingRight=4;overflow=hidden;rotatable=0;points=[[0,0.5],[1,0.5]];portConstraint=eastwest;" vertex="1" parent="251">
                    <mxGeometry y="114" width="280" height="26" as="geometry"/>
                </mxCell>
                <mxCell id="262" value="ScoreZone ex AppCompat" style="swimlane;fontStyle=0;childLayout=stackLayout;horizontal=1;startSize=26;fillColor=none;horizontalStack=0;resizeParent=1;resizeParentMax=0;resizeLast=0;collapsible=1;marginBottom=0;" vertex="1" parent="1">
                    <mxGeometry x="130" y="1290" width="240" height="192" as="geometry"/>
                </mxCell>
                <mxCell id="263" value="- scoreEasy: String" style="text;strokeColor=none;fillColor=none;align=left;verticalAlign=top;spacingLeft=4;spacingRight=4;overflow=hidden;rotatable=0;points=[[0,0.5],[1,0.5]];portConstraint=eastwest;" vertex="1" parent="262">
                    <mxGeometry y="26" width="240" height="26" as="geometry"/>
                </mxCell>
                <mxCell id="270" value="- scoreMedium: String" style="text;strokeColor=none;fillColor=none;align=left;verticalAlign=top;spacingLeft=4;spacingRight=4;overflow=hidden;rotatable=0;points=[[0,0.5],[1,0.5]];portConstraint=eastwest;" vertex="1" parent="262">
                    <mxGeometry y="52" width="240" height="26" as="geometry"/>
                </mxCell>
                <mxCell id="269" value="- viewPager2: ViewPager2" style="text;strokeColor=none;fillColor=none;align=left;verticalAlign=top;spacingLeft=4;spacingRight=4;overflow=hidden;rotatable=0;points=[[0,0.5],[1,0.5]];portConstraint=eastwest;" vertex="1" parent="262">
                    <mxGeometry y="78" width="240" height="26" as="geometry"/>
                </mxCell>
                <mxCell id="268" value="- viewPagerAdapter: ViewPagerAdapter" style="text;strokeColor=none;fillColor=none;align=left;verticalAlign=top;spacingLeft=4;spacingRight=4;overflow=hidden;rotatable=0;points=[[0,0.5],[1,0.5]];portConstraint=eastwest;" vertex="1" parent="262">
                    <mxGeometry y="104" width="240" height="26" as="geometry"/>
                </mxCell>
                <mxCell id="267" value="- tabLayout: TabLayout" style="text;strokeColor=none;fillColor=none;align=left;verticalAlign=top;spacingLeft=4;spacingRight=4;overflow=hidden;rotatable=0;points=[[0,0.5],[1,0.5]];portConstraint=eastwest;" vertex="1" parent="262">
                    <mxGeometry y="130" width="240" height="26" as="geometry"/>
                </mxCell>
                <mxCell id="264" value="" style="line;strokeWidth=1;html=1;" vertex="1" parent="262">
                    <mxGeometry y="156" width="240" height="10" as="geometry"/>
                </mxCell>
                <mxCell id="265" value="# onCreate(): void" style="text;strokeColor=none;fillColor=none;align=left;verticalAlign=top;spacingLeft=4;spacingRight=4;overflow=hidden;rotatable=0;points=[[0,0.5],[1,0.5]];portConstraint=eastwest;" vertex="1" parent="262">
                    <mxGeometry y="166" width="240" height="26" as="geometry"/>
                </mxCell>
                <mxCell id="271" style="edgeStyle=none;html=1;entryX=0;entryY=0;entryDx=0;entryDy=0;dashed=1;exitX=1;exitY=0.5;exitDx=0;exitDy=0;" edge="1" parent="1" source="265" target="251">
                    <mxGeometry relative="1" as="geometry"/>
                </mxCell>
            </root>
        </mxGraphModel>
    </diagram>
</mxfile>